<svg xmlns="http://www.w3.org/2000/svg" width="1100" height="740" viewBox="0 0 1100 740"><rect width="1100" height="740" fill="#fff"/><style>text{font-family:Arial,sans-serif;fill:#19364b}.title{font-size:25px;font-weight:bold}.label{font-size:18px;font-weight:bold}.small{font-size:15px}.shape{stroke:#236b8e;stroke-width:3;fill:#deedf4}.line{stroke:#236b8e;stroke-width:3;fill:none}</style><text x="35" y="40" class="title">Which details change the collision response?</text><text x="35" y="68" class="small">Concept sketches • modelling choices to investigate</text><line x1="35" y1="95" x2="1065" y2="95" stroke="#c9d6de"/><text x="35" y="122" class="label">1  Structural detail</text><text x="280" y="140" class="small">Equivalent plate</text><text x="720" y="140" class="small">Explicitly stiffened panel</text><text x="560" y="225" font-size="30">↔</text><path class="shape" d="M260,255 l55,-75 h245 l-55,75z"/><path class="shape" d="M700,255 l55,-75 h245 l-55,75z"/><path class="shape" d="M720,247 l55,-75 v-22 l-55,75z"/><path class="shape" d="M772,247 l55,-75 v-22 l-55,75z"/><path class="shape" d="M824,247 l55,-75 v-22 l-55,75z"/><path class="shape" d="M876,247 l55,-75 v-22 l-55,75z"/><line x1="35" y1="300" x2="1065" y2="300" stroke="#c9d6de"/><text x="35" y="327" class="label">2  Contact geometry</text><text x="280" y="355" class="small">Box-like hull</text><text x="720" y="355" class="small">Curved hull</text><text x="560" y="430" font-size="30">↔</text><rect class="shape" x="270" y="385" width="250" height="75"/><path class="shape" d="M710,385 H860 Q930,387 990,422 Q930,459 860,460 H710 Z"/><circle cx="532" cy="423" r="15" fill="#e7b45c" stroke="#9d752c" stroke-width="2"/><circle cx="1005" cy="423" r="15" fill="#e7b45c" stroke="#9d752c" stroke-width="2"/><line x1="35" y1="505" x2="1065" y2="505" stroke="#c9d6de"/><text x="35" y="532" class="label">3  Hydrodynamic geometry</text><text x="280" y="560" class="small">Simplified submerged body</text><text x="720" y="560" class="small">More representative hull</text><text x="560" y="635" font-size="30">↔</text><line x1="250" y1="602" x2="570" y2="602" stroke="#59a6c3" stroke-width="2" stroke-dasharray="7 5"/><line x1="690" y1="602" x2="1010" y2="602" stroke="#59a6c3" stroke-width="2" stroke-dasharray="7 5"/><path class="shape" d="M275,602 H540 V668 H275 Z"/><path class="shape" d="M715,602 H990 Q970,667 885,668 H765 Q738,662 715,602Z"/><text x="35" y="720" class="small">Illustrative only • no mesh, dimensions, equivalent properties or simulation results are implied</text></svg>